<svg id="Layer_1" data-name="Layer 1" xmlns="http://www.w3.org/2000/svg" viewBox="0 0 957.93 568.74"><defs><style>.cls-1{fill:#666766;}.cls-2{fill:#00a14b;}.cls-3{fill:#0daa4c;}.cls-4{opacity:0.3;}.cls-5{fill:#fff;}.cls-6{opacity:0.5;}.cls-7{opacity:0.51;}.cls-8{fill:#006838;}</style></defs><title>3</title><path class="cls-1" d="M403.11,293.1h-3.93v9.18H393.5V276.76h9.61a8.81,8.81,0,0,1,6.32,2.3,8.34,8.34,0,0,1,0,11.77A8.91,8.91,0,0,1,403.11,293.1Zm-3.89-4.89h3.31a3.87,3.87,0,0,0,2.63-.89,3,3,0,0,0,1-2.35,3.07,3.07,0,0,0-1-2.4,3.82,3.82,0,0,0-2.65-.88H399.2Z"/><path class="cls-1" d="M425.79,284.39v5.4a7.21,7.21,0,0,0-1.73-.18,4.09,4.09,0,0,0-3,1.19,5,5,0,0,0-1.17,3.67v7.81h-5.47V284.39h5.29v2.41a4.14,4.14,0,0,1,2-2,6.32,6.32,0,0,1,2.67-.61A5.16,5.16,0,0,1,425.79,284.39Z"/><path class="cls-1" d="M436.7,283.85a9.32,9.32,0,0,1,6.78,2.66,9.61,9.61,0,1,1-13.59,0l0,0A9.28,9.28,0,0,1,436.7,283.85Zm0,13.93a3.93,3.93,0,0,0,2.86-1.15,5.25,5.25,0,0,0,0-6.61,4,4,0,0,0-2.86-1.13,3.93,3.93,0,0,0-2.85,1.15,4.37,4.37,0,0,0-1.19,3.28,4.45,4.45,0,0,0,1.19,3.29A3.91,3.91,0,0,0,436.7,297.78Z"/><path class="cls-1" d="M454.62,302.28h-5.29V276.22h5.37v9.86a4.54,4.54,0,0,1,2-1.51,7.82,7.82,0,0,1,3.17-.61,7.6,7.6,0,0,1,6.07,2.61,9.91,9.91,0,0,1,2.25,6.71,9.61,9.61,0,0,1-2.4,6.75,7.89,7.89,0,0,1-6.14,2.65,6.73,6.73,0,0,1-3.06-.67,4.65,4.65,0,0,1-2-1.75Zm8.1-9a4.4,4.4,0,0,0-1.15-3.3,4.25,4.25,0,0,0-5.78,0,5.2,5.2,0,0,0,0,6.59,4,4,0,0,0,2.88,1.17,3.89,3.89,0,0,0,2.86-1.17,4.44,4.44,0,0,0,1.19-3.25Z"/><path class="cls-1" d="M476.8,302.28h-5.47V276.22h5.47Z"/><path class="cls-1" d="M492.93,295.84l4.57,1.29a7.45,7.45,0,0,1-2.84,4.09,8.82,8.82,0,0,1-5.4,1.6,9.69,9.69,0,0,1-6.68-16.34,8.62,8.62,0,0,1,6.28-2.63,8.84,8.84,0,0,1,6.57,2.43,9.17,9.17,0,0,1,2.39,6.75,8,8,0,0,1-.1,1.69H485.26a3.32,3.32,0,0,0,1.26,2.47,4.25,4.25,0,0,0,2.81,1A3.43,3.43,0,0,0,492.93,295.84Zm-7.56-4.65h7.16a3.2,3.2,0,0,0-.95-2.12,3.57,3.57,0,0,0-2.65-.9,3.37,3.37,0,0,0-2.52.94A3.33,3.33,0,0,0,485.37,291.19Z"/><path class="cls-1" d="M506.43,302.28H501V284.39h5.22v2.05a4.63,4.63,0,0,1,2.14-1.87,6.94,6.94,0,0,1,3-.72c2.57,0,4.33.94,5.3,2.81a6.33,6.33,0,0,1,5.54-2.81,6.83,6.83,0,0,1,4.72,1.71,6.53,6.53,0,0,1,1.9,5.13v11.59h-5.29V291.91a3.22,3.22,0,0,0-.72-2.17,2.62,2.62,0,0,0-2.12-.85,2.81,2.81,0,0,0-2.2.9,3.12,3.12,0,0,0-.79,2.16v10.33h-5.4V291.91a3.19,3.19,0,0,0-.74-2.17,2.66,2.66,0,0,0-2.14-.85,2.73,2.73,0,0,0-2.16.9,3.22,3.22,0,0,0-.79,2.2Z"/><path class="cls-1" d="M559.38,283l-5.11,1.44a4,4,0,0,0-1.19-2.2,4.16,4.16,0,0,0-3.06-1,3.83,3.83,0,0,0-2.52.81,2.41,2.41,0,0,0-1,1.92c0,1.32.84,2.14,2.52,2.45l3.42.65a9.42,9.42,0,0,1,5.45,2.75,7,7,0,0,1,1.93,4.92,7.53,7.53,0,0,1-2.56,5.63,9.54,9.54,0,0,1-6.87,2.43q-4.83,0-7.47-2.5a8.89,8.89,0,0,1-3-5.67l5.22-1.26a4.85,4.85,0,0,0,1.49,3.15,5.31,5.31,0,0,0,3.8,1.24,4.25,4.25,0,0,0,2.63-.74,2.29,2.29,0,0,0,1-1.92,2.14,2.14,0,0,0-.72-1.64,4.13,4.13,0,0,0-2-.92l-3.49-.65a8.9,8.9,0,0,1-5.09-2.62,6.93,6.93,0,0,1-1.86-4.87,7.42,7.42,0,0,1,2.7-5.86,9.52,9.52,0,0,1,6.45-2.34,12.08,12.08,0,0,1,4.05.63,7.42,7.42,0,0,1,2.82,1.67,9.13,9.13,0,0,1,1.64,2.16A7.5,7.5,0,0,1,559.38,283Z"/><path class="cls-1" d="M571.15,283.85a9.34,9.34,0,0,1,6.79,2.66,9.61,9.61,0,1,1-13.59,0l0,0A9.27,9.27,0,0,1,571.15,283.85Zm0,13.93a4,4,0,0,0,2.87-1.15,5.25,5.25,0,0,0,0-6.61,4,4,0,0,0-2.87-1.13,3.93,3.93,0,0,0-2.84,1.15,4.37,4.37,0,0,0-1.19,3.28,4.45,4.45,0,0,0,1.19,3.29A3.93,3.93,0,0,0,571.15,297.78Z"/><path class="cls-1" d="M589.26,302.28h-5.47V276.22h5.47Z"/><path class="cls-1" d="M611.29,284.39l-6.8,17.89H599l-7.34-17.89h5.94l4.14,11.12,3.81-11.12Z"/><path class="cls-1" d="M624.83,295.84l4.57,1.29a7.41,7.41,0,0,1-2.84,4.09,8.82,8.82,0,0,1-5.4,1.6,9.69,9.69,0,0,1-6.68-16.34,8.62,8.62,0,0,1,6.28-2.63,8.76,8.76,0,0,1,6.57,2.43,9.17,9.17,0,0,1,2.4,6.75,7.36,7.36,0,0,1-.11,1.69H617.16a3.32,3.32,0,0,0,1.26,2.47,4.25,4.25,0,0,0,2.81,1A3.43,3.43,0,0,0,624.83,295.84Zm-7.56-4.65h7.16a3.2,3.2,0,0,0-.95-2.12,3.57,3.57,0,0,0-2.65-.9,3.37,3.37,0,0,0-2.52.94A3.33,3.33,0,0,0,617.27,291.19Z"/><path class="cls-1" d="M644.23,284.39v5.4a7.08,7.08,0,0,0-1.72-.18,4,4,0,0,0-3,1.19,5,5,0,0,0-1.17,3.67v7.81h-5.47V284.39h5.29v2.41a4,4,0,0,1,2-2,6.43,6.43,0,0,1,2.66-.61A5.16,5.16,0,0,1,644.23,284.39Z"/><path class="cls-2" d="M411.06,248.93,406,250.37a3.84,3.84,0,0,0-1.19-2.19,4.16,4.16,0,0,0-3.06-1,3.83,3.83,0,0,0-2.52.81,2.5,2.5,0,0,0-1,1.93c0,1.32.84,2.13,2.52,2.44l3.42.65a9.43,9.43,0,0,1,5.46,2.76,7.06,7.06,0,0,1,1.92,4.91A7.55,7.55,0,0,1,409,266.3a9.6,9.6,0,0,1-6.88,2.43q-4.83,0-7.47-2.5a9,9,0,0,1-3-5.67l5.22-1.26a4.85,4.85,0,0,0,1.49,3.15,5.36,5.36,0,0,0,3.8,1.24,4.24,4.24,0,0,0,2.63-.73,2.32,2.32,0,0,0,1-1.93,2.14,2.14,0,0,0-.72-1.64,4.13,4.13,0,0,0-2-.92l-3.5-.64a9,9,0,0,1-5.09-2.63,6.89,6.89,0,0,1-1.85-4.86,7.42,7.42,0,0,1,2.7-5.87,9.51,9.51,0,0,1,6.44-2.34,12.08,12.08,0,0,1,4.05.63,7.53,7.53,0,0,1,2.83,1.67,9.29,9.29,0,0,1,1.63,2.16A7.68,7.68,0,0,1,411.06,248.93Z"/><path class="cls-2" d="M419.7,275h-5.47V250.3h5.29v1.84a4.74,4.74,0,0,1,2-1.6,7.45,7.45,0,0,1,3.22-.67,7.6,7.6,0,0,1,6.07,2.61,9.91,9.91,0,0,1,2.25,6.71,9.61,9.61,0,0,1-2.4,6.75,7.89,7.89,0,0,1-6.14,2.65q-3.37,0-4.86-1.8Zm6.86-12.51a5.2,5.2,0,0,0,0-6.57,4.19,4.19,0,0,0-5.76,0,5.2,5.2,0,0,0,0,6.57A4.13,4.13,0,0,0,426.56,262.49Z"/><path class="cls-2" d="M447.78,261.75l4.57,1.3a7.39,7.39,0,0,1-2.84,4.08,8.82,8.82,0,0,1-5.4,1.6,9.7,9.7,0,0,1-6.68-16.34,8.66,8.66,0,0,1,6.29-2.63,8.84,8.84,0,0,1,6.57,2.43,9.26,9.26,0,0,1,2.39,6.75,7.36,7.36,0,0,1-.11,1.69H440.12a3.24,3.24,0,0,0,1.26,2.47,4.22,4.22,0,0,0,2.8,1A3.43,3.43,0,0,0,447.78,261.75Zm-7.56-4.64h7.17a3.21,3.21,0,0,0-1-2.13,3.51,3.51,0,0,0-2.64-.9,3.44,3.44,0,0,0-3.57,3Z"/><path class="cls-2" d="M454.59,263.26a4.78,4.78,0,0,1,1.47-3.65,7,7,0,0,1,3.82-1.75l4.21-.65c.87-.12,1.3-.52,1.3-1.22a1.73,1.73,0,0,0-.71-1.39,3.54,3.54,0,0,0-4.1.22,2.73,2.73,0,0,0-.88,1.85l-4.75-1a6.17,6.17,0,0,1,2.21-4.08,8,8,0,0,1,5.64-1.86q4.06,0,6,2a6.79,6.79,0,0,1,1.93,5v8.75a14.25,14.25,0,0,0,.21,2.77H466a8.42,8.42,0,0,1-.18-2,5.49,5.49,0,0,1-5,2.52,6.26,6.26,0,0,1-4.52-1.61A5.09,5.09,0,0,1,454.59,263.26Zm7.52,1.48a3.4,3.4,0,0,0,2.34-.83,3.46,3.46,0,0,0,.94-2.74v-.79l-3.39.54c-1.33.22-2,.89-2,2a1.79,1.79,0,0,0,.52,1.3,2.15,2.15,0,0,0,1.59.52Z"/><path class="cls-2" d="M492.78,250.3l-7,7.53,7.13,10.36h-6.7l-4.21-6.3-1.76,1.91v4.39h-5.48V242.13h5.48v14.18l5.43-6Z"/><path class="cls-2" d="M520.36,268.19H503.65V242.67h5.69v20.09h11Z"/><path class="cls-2" d="M531.48,249.76a9.34,9.34,0,0,1,6.79,2.66,9.61,9.61,0,1,1-13.59,0l0,0A9.3,9.3,0,0,1,531.48,249.76Zm0,13.93a3.93,3.93,0,0,0,2.86-1.15,4.44,4.44,0,0,0,1.17-3.31,4.36,4.36,0,0,0-1.17-3.29,4.11,4.11,0,0,0-5.7,0,5.12,5.12,0,0,0,0,6.57A3.9,3.9,0,0,0,531.48,263.69Z"/><path class="cls-2" d="M542.71,269.2l4.83-1.37a3.68,3.68,0,0,0,1.31,2.16,3.88,3.88,0,0,0,2.54.83q4.43,0,4.43-4.57v-.83q-1.34,2-4.79,2a7.85,7.85,0,0,1-5.94-2.49,8.64,8.64,0,0,1-2.38-6.22,8.84,8.84,0,0,1,2.36-6.18,7.73,7.73,0,0,1,6-2.57,6.85,6.85,0,0,1,3.24.68,4.18,4.18,0,0,1,1.73,1.55V250.3h5.22V266a10.07,10.07,0,0,1-2.41,6.9c-1.61,1.81-4,2.72-7.17,2.71a9.62,9.62,0,0,1-6.1-1.89A7,7,0,0,1,542.71,269.2Zm6.56-7.59a3.72,3.72,0,0,0,2.77,1.08,3.68,3.68,0,0,0,2.75-1.08,3.94,3.94,0,0,0,1.06-2.88,3.88,3.88,0,0,0-1.11-2.87,3.74,3.74,0,0,0-2.7-1.1,3.82,3.82,0,0,0-3.85,3.77h0v.23a3.9,3.9,0,0,0,1.08,2.85Z"/><path class="cls-2" d="M565.75,247.1a3.24,3.24,0,0,1,0-4.54,3.1,3.1,0,0,1,2.24-.93,3.2,3.2,0,0,1,2.35,5.4l-.07.07a3.14,3.14,0,0,1-2.27.9A3.05,3.05,0,0,1,565.75,247.1Zm5,21.09h-5.47V250.3h5.47Z"/><path class="cls-2" d="M583.25,254.8a4,4,0,0,0-2.94,1.19,5.05,5.05,0,0,0,0,6.52,4,4,0,0,0,3,1.18,3.66,3.66,0,0,0,2.43-.77A3.82,3.82,0,0,0,587,261l4.82,1.48A8.33,8.33,0,0,1,589,266.9a8.7,8.7,0,0,1-5.64,1.83,9.47,9.47,0,0,1-6.82-2.68,9,9,0,0,1-2.79-6.79,9.23,9.23,0,0,1,9-9.5h.53a8.83,8.83,0,0,1,5.73,1.8,8.21,8.21,0,0,1,2.88,4.43l-4.9,1.48a3.78,3.78,0,0,0-1.22-1.91A3.6,3.6,0,0,0,583.25,254.8Z"/><path class="cls-1" d="M396.82,329.68a2.67,2.67,0,0,0,3,2.5c2,0,2.8-.79,2.8-2.29s-.79-2.17-3.28-3.07c-3-1.06-4.25-2-4.25-4.06-.14-1.84,1.72-3.41,4.17-3.52h.61c3.71,0,4.69,2,4.74,3.64h-2.25a2.28,2.28,0,0,0-2.55-2.23,2.17,2.17,0,0,0-2.44,1.64.81.81,0,0,0,0,.31c0,1.27.76,1.87,3.05,2.69,3.28,1.16,4.51,2.32,4.51,4.44.23,2-1.7,3.68-4.31,3.85a6.46,6.46,0,0,1-.88,0c-3.84,0-5.08-1.87-5.21-3.91Z"/><path class="cls-1" d="M417.14,328c0,3.71-1.69,5.55-4.9,5.55s-4.86-1.77-4.86-5.51,1.91-5.33,5-5.33S417.14,324.53,417.14,328Zm-7.47,0c0,2.73.85,4.06,2.66,4.06s2.57-1.34,2.57-4.06-.81-3.87-2.58-3.87-2.67,1.24-2.67,3.95Z"/><path class="cls-1" d="M420.11,333.39V318.76h2.25v14.63Z"/><path class="cls-1" d="M427.13,322.93c1.09,3.31,2.4,7.23,2.67,8.6h0c.2-1.24,2.1-6.3,2.82-8.6h2.25l-4,10.46h-2.42l-3.77-10.46Z"/><path class="cls-1" d="M437.11,322.93h2.25v10.46h-2.25Zm0-4.17h2.25V321h-2.24Z"/><path class="cls-1" d="M443.12,326.17v-3.24h2.17a7.15,7.15,0,0,1,.08,1.31,3.48,3.48,0,0,1,3.25-1.5c2.08,0,3.58.91,3.58,3.19v7.46H450v-7.11c0-1.23-.5-2-2-2-1.74,0-2.5.85-2.5,2.88v6.28h-2.29Z"/><path class="cls-1" d="M464.71,332.69c0,2.79-.93,4.7-5,4.7-3.67,0-4.46-1.76-4.54-2.91h2.27a1.94,1.94,0,0,0,2.18,1.5h.17c2.23,0,2.67-1.23,2.67-3.28v-.87a3.28,3.28,0,0,1-3.19,1.53c-2.85,0-4.21-1.82-4.21-5.07,0-3.73,1.83-5.53,4.51-5.53,1.88,0,2.66.68,2.89,1.32a7.31,7.31,0,0,1,.1-1.14h2.16v3Zm-7.3-4.45c0,2.47.88,3.65,2.52,3.65,2.06,0,2.6-1.52,2.6-3.92s-.38-3.74-2.44-3.74c-1.75,0-2.66,1.37-2.66,4Z"/><path class="cls-1" d="M474.29,319.44h4.94c2.95,0,5,1.38,5,3.94s-1.86,4.05-5.33,4.05h-2.37v6h-2.25Zm2.28,6.56h2.12c2.16,0,3.25-.85,3.25-2.64.22-1.19-.89-2.29-2.48-2.46h0a2.53,2.53,0,0,0-.55,0h-2.34Z"/><path class="cls-1" d="M486.79,326.49v-3.56h2.15c0,.25.07.73.07,1.84a3.85,3.85,0,0,1,3.68-2v1.87c-2.37,0-3.63,1.05-3.63,3v5.77h-2.25Z"/><path class="cls-1" d="M504,328c0,3.71-1.69,5.55-4.89,5.55s-4.88-1.77-4.88-5.51,1.92-5.33,5-5.33S504,324.53,504,328Zm-7.47,0c0,2.73.85,4.06,2.66,4.06s2.58-1.34,2.58-4.06-.81-3.87-2.58-3.87-2.66,1.24-2.66,3.95Z"/><path class="cls-1" d="M507,318.76h2.23v5.49a3.55,3.55,0,0,1,3.28-1.5c2.67,0,4.08,1.72,4.08,5.14,0,3.25-1.15,5.67-4.48,5.67a3.09,3.09,0,0,1-3-1.36,7.91,7.91,0,0,1-.06,1.19h-2.12V330.5Zm7.31,9.16c0-2.5-.73-3.69-2.45-3.69-2,0-2.67,1.32-2.67,4s.54,3.91,2.52,3.91S514.27,330.79,514.27,327.92Z"/><path class="cls-1" d="M519.51,333.39V318.76h2.21v14.63Z"/><path class="cls-1" d="M527.05,328.51c0,1.91.41,3.64,2.54,3.64a2.23,2.23,0,0,0,2.41-1.78h2.19c-.12,1.84-2.17,3.27-4.63,3.22-4.18,0-4.77-2.83-4.77-5.45,0-3.31,1.55-5.39,4.87-5.39,3.74,0,4.63,2.27,4.63,4.91v.85Zm5-1.3c0-1.64-.44-3-2.41-3-2.41,0-2.53,2.31-2.55,3Z"/><path class="cls-1" d="M537.22,326.07v-3.14h2.16c0,.43.08.85.08,1.28a3.4,3.4,0,0,1,3.11-1.46,2.7,2.7,0,0,1,2.87,1.53,3.77,3.77,0,0,1,3.39-1.53c1.78,0,3.39.66,3.39,3.06v7.58H550v-7.3a1.66,1.66,0,0,0-1.88-1.86c-1.67,0-2.26,1.09-2.26,2.48v6.68h-2.23v-7.26c0-1.23-.54-1.89-1.85-1.89-1.58,0-2.32,1.05-2.32,2.6v6.55h-2.22Z"/><rect class="cls-1" x="394.76" y="312.67" width="250.05" height="0.35"/><path class="cls-2" d="M377.92,250a30,30,0,0,0-30-30H336.17a124.93,124.93,0,0,1-51.25,128.8h93Z"/><path class="cls-3" d="M338.9,246a125.52,125.52,0,0,0-2.73-26H279.12a30,30,0,0,0-30,30h0v68.8a30,30,0,0,0,30,30h5.8A124.64,124.64,0,0,0,338.9,246Z"/><g class="cls-4"><circle class="cls-5" cx="334.42" cy="266.88" r="5.74"/></g><g class="cls-6"><circle class="cls-5" cx="314.3" cy="266.88" r="5.74"/></g><circle class="cls-5" cx="294.18" cy="266.88" r="5.74"/><g class="cls-7"><path class="cls-8" d="M340.47,348.77h23a24.07,24.07,0,0,0-21.81-16.25l.33-.07c.52-.08,1.05-.13,1.56-.23a13.44,13.44,0,0,0-5-26.42,14,14,0,0,0-2.47.65A13.47,13.47,0,0,0,327.69,322a13.24,13.24,0,0,0,4.34,7.21,13.1,13.1,0,0,0,7,3.14l.85.11c-.36.06-.72.08-1.08.11a22.56,22.56,0,0,0-5.62,1.15c-.45.16-.87.34-1.31.51A32,32,0,0,1,340.47,348.77Z"/></g><path class="cls-5" d="M340.47,348.77a31.9,31.9,0,0,0-8.59-14.5c-.41-.4-.83-.81-1.27-1.19a32,32,0,0,0-20-8l.44-.08c.7-.11,1.41-.18,2.1-.32a17.73,17.73,0,1,0-6.08.32l1.14.14c-.49.08-1,.11-1.45.15a29.55,29.55,0,0,0-7.55,1.54,32,32,0,0,0-18,15.11,30.67,30.67,0,0,0-2.78,6.85h0Z"/><polyline class="cls-2" points="396.19 348.77 377.92 348.77 377.92 330.5"/><path class="cls-1" d="M562.21,319.35h2.14v12.88h6.78l-.3,1.38h-8.62Z"/><path class="cls-1" d="M582,328.16c0,3.74-1.67,5.64-4.87,5.64s-4.88-1.83-4.88-5.6,1.92-5.41,5-5.41S582,324.59,582,328.16Zm-7.66,0c0,2.9,1,4.27,2.8,4.27s2.77-1.39,2.77-4.28c0-2.73-.89-4.06-2.77-4.06s-2.8,1.23-2.8,4.11Z"/><path class="cls-1" d="M593.65,332.93c0,2.79-.89,4.76-4.95,4.76-3.66,0-4.46-1.79-4.54-2.94h2.07a2.1,2.1,0,0,0,2.34,1.64h.2c2.37,0,2.86-1.31,2.86-3.45v-1a3.35,3.35,0,0,1-3.3,1.63c-2.87,0-4.28-1.82-4.28-5.17,0-3.83,1.89-5.62,4.58-5.62,1.93,0,2.75.69,3,1.39a7.1,7.1,0,0,1,.11-1.22h1.91v10Zm-7.48-4.55c0,2.58.94,3.84,2.66,3.84,2.2,0,2.8-1.62,2.8-4.1s-.45-4-2.66-4c-1.87,0-2.87,1.49-2.87,4.26Z"/><path class="cls-1" d="M597,323h2v10.65h-2Zm0-4.3h2v2.2h-2Z"/><path class="cls-1" d="M611,330.36c.08,1.84-1.84,3.38-4.28,3.44h-.23c-3.71,0-4.71-2.46-4.71-5.55s1.34-5.47,4.89-5.47c2.32-.06,4.26,1.3,4.34,3,0,.11,0,.21,0,.32h-2.13a2,2,0,0,0-2.24-2c-2,0-2.79,1.68-2.79,4.14,0,2.65.77,4.23,2.66,4.23a2.34,2.34,0,0,0,2.4-2.11Z"/><path class="cls-1" d="M621.63,331.73c0,.66.08,1.54.11,1.88h-1.87a4.5,4.5,0,0,1-.14-1.21,3.63,3.63,0,0,1-3.35,1.4c-2.73,0-3.72-1.6-3.72-3.08,0-2,1.76-3.41,5.48-3.41h1.48V325.9c0-.84-.21-1.89-2.13-1.89s-2.21,1.12-2.29,1.83h-2c-.15-1.6,1.45-3,3.58-3.1a6.26,6.26,0,0,1,.75,0c2.75,0,4.07,1,4.07,3Zm-2-3.16a11.09,11.09,0,0,0-1.41-.06c-2.52,0-3.54.91-3.54,2.09-.16.92.71,1.76,1.94,1.88h.25c2.08,0,2.76-1.1,2.76-3.35Z"/><path class="cls-1" d="M625,333.61V318.66h2.05v14.95Z"/><path class="cls-1" d="M630.53,333.61V318.66h2v14.95Z"/><path class="cls-1" d="M636.88,323c1.54,4.46,2.67,7.65,2.91,8.79h0c.28-1.23,1.54-4.88,2.89-8.79h2.13l-4.16,11.18c-1.14,3.12-2.25,3.54-4.26,3.54a6.77,6.77,0,0,1-1-.07v-1.37a7.26,7.26,0,0,0,.93.06c1.49,0,1.91-.76,2.47-2.47L634.65,323Z"/></svg>