<svg id="Layer_1" data-name="Layer 1" xmlns="http://www.w3.org/2000/svg" viewBox="0 0 957.93 568.74"><defs><style>.cls-1{fill:#00a14b;}.cls-2{fill:#666766;}.cls-3{fill:#fff;}.cls-4{fill:#efefef;}</style></defs><title>1</title><path d="M519.15,285.13h-3.92v9.18h-5.69V268.79h9.61a8.81,8.81,0,0,1,6.32,2.3,8.34,8.34,0,0,1,0,11.77A8.86,8.86,0,0,1,519.15,285.13Zm-3.89-4.89h3.32a3.85,3.85,0,0,0,2.62-.89,2.89,2.89,0,0,0,1-2.35,3.07,3.07,0,0,0-1-2.4,3.79,3.79,0,0,0-2.64-.88h-3.32Z"/><path d="M541.83,276.42v5.4a7.21,7.21,0,0,0-1.73-.18,4,4,0,0,0-3,1.19,5,5,0,0,0-1.17,3.67v7.81h-5.47V276.42h5.29v2.41a4,4,0,0,1,2-2,6.43,6.43,0,0,1,2.66-.61A5.24,5.24,0,0,1,541.83,276.42Z"/><path d="M552.74,275.88a9.31,9.31,0,0,1,6.79,2.67,9.61,9.61,0,1,1-13.59,0l0,0A9.33,9.33,0,0,1,552.74,275.88Zm0,13.93a3.93,3.93,0,0,0,2.86-1.15,5.25,5.25,0,0,0,0-6.61,4,4,0,0,0-2.86-1.13,3.93,3.93,0,0,0-2.84,1.15,5.12,5.12,0,0,0,0,6.57A3.93,3.93,0,0,0,552.74,289.81Z"/><path d="M570.67,294.31h-5.29V268.25h5.36v9.86a4.6,4.6,0,0,1,2-1.51,7.8,7.8,0,0,1,3.16-.61,7.6,7.6,0,0,1,6.1,2.61,9.91,9.91,0,0,1,2.25,6.71,9.71,9.71,0,0,1-2.39,6.75,7.89,7.89,0,0,1-6.14,2.65,6.73,6.73,0,0,1-3.06-.67,4.62,4.62,0,0,1-2-1.74Zm8.1-9a4.46,4.46,0,0,0-1.15-3.3,4.25,4.25,0,0,0-5.78,0,5.2,5.2,0,0,0,0,6.59,4,4,0,0,0,2.88,1.17,3.89,3.89,0,0,0,2.86-1.17,4.44,4.44,0,0,0,1.19-3.25Z"/><path d="M592.84,294.31h-5.47V268.25h5.47Z"/><path d="M609,287.87l4.57,1.3a7.39,7.39,0,0,1-2.84,4.08,8.82,8.82,0,0,1-5.4,1.6,9.7,9.7,0,0,1-6.68-16.34,8.62,8.62,0,0,1,6.28-2.63,8.76,8.76,0,0,1,6.57,2.43,9.17,9.17,0,0,1,2.4,6.75,7.36,7.36,0,0,1-.11,1.69H601.3a3.32,3.32,0,0,0,1.26,2.47,4.25,4.25,0,0,0,2.81,1A3.42,3.42,0,0,0,609,287.87Zm-7.56-4.65h7.17a3.24,3.24,0,0,0-1-2.12,3.55,3.55,0,0,0-2.64-.9,3.37,3.37,0,0,0-2.52.94,3.26,3.26,0,0,0-1,2.08Z"/><path d="M622.47,294.31H617V276.42h5.22v2.05a4.69,4.69,0,0,1,2.14-1.87,6.94,6.94,0,0,1,3-.72c2.56,0,4.33.94,5.29,2.81a6.35,6.35,0,0,1,5.54-2.81,6.83,6.83,0,0,1,4.72,1.71,6.57,6.57,0,0,1,1.91,5.13v11.59h-5.29V283.94a3.23,3.23,0,0,0-.73-2.17,2.58,2.58,0,0,0-2.12-.85,2.79,2.79,0,0,0-2.19.9,3.16,3.16,0,0,0-.8,2.16v10.33h-5.4V283.94a3.12,3.12,0,0,0-.74-2.17,2.66,2.66,0,0,0-2.14-.85,2.73,2.73,0,0,0-2.16.9,3.22,3.22,0,0,0-.79,2.2Z"/><path d="M675.43,275.05l-5.12,1.44a3.88,3.88,0,0,0-1.18-2.19,4.18,4.18,0,0,0-3.06-1,3.83,3.83,0,0,0-2.52.81,2.41,2.41,0,0,0-1,1.92c0,1.32.84,2.14,2.52,2.45l3.42.65a9.43,9.43,0,0,1,5.46,2.76,7.06,7.06,0,0,1,1.92,4.91,7.59,7.59,0,0,1-2.55,5.63,9.6,9.6,0,0,1-6.88,2.43q-4.82,0-7.47-2.5a9,9,0,0,1-3-5.67l5.22-1.26a4.79,4.79,0,0,0,1.5,3.15,5.28,5.28,0,0,0,3.79,1.24,4.24,4.24,0,0,0,2.63-.73,2.32,2.32,0,0,0,1-1.93,2.14,2.14,0,0,0-.72-1.64,4.13,4.13,0,0,0-2-.92l-3.49-.6a9,9,0,0,1-5.1-2.62,7,7,0,0,1-1.85-4.86,7.42,7.42,0,0,1,2.7-5.87,9.51,9.51,0,0,1,6.44-2.34,12.09,12.09,0,0,1,4,.63,7.53,7.53,0,0,1,2.83,1.67,9.55,9.55,0,0,1,1.64,2.16A8.4,8.4,0,0,1,675.43,275.05Z"/><path d="M687.2,275.88a9.27,9.27,0,0,1,6.78,2.67,9.9,9.9,0,0,1,0,13.62,9.53,9.53,0,0,1-16.29-6.82,9.14,9.14,0,0,1,2.74-6.79A9.3,9.3,0,0,1,687.2,275.88Zm0,13.93a3.93,3.93,0,0,0,2.86-1.15,5.25,5.25,0,0,0,0-6.61,4.15,4.15,0,0,0-5.71,0,5.17,5.17,0,0,0,0,6.57A3.93,3.93,0,0,0,687.2,289.81Z"/><path d="M705.31,294.31h-5.48V268.25h5.48Z"/><path d="M727.34,276.42l-6.81,17.89H715l-7.35-17.89h5.94l4.14,11.13,3.82-11.13Z"/><path d="M740.87,287.87l4.58,1.3a7.4,7.4,0,0,1-2.85,4.08,8.82,8.82,0,0,1-5.4,1.6,9.7,9.7,0,0,1-6.68-16.34,8.66,8.66,0,0,1,6.29-2.63,8.84,8.84,0,0,1,6.57,2.43,9.26,9.26,0,0,1,2.39,6.75,7.36,7.36,0,0,1-.11,1.69H733.21a3.24,3.24,0,0,0,1.26,2.47,4.22,4.22,0,0,0,2.8,1A3.43,3.43,0,0,0,740.87,287.87Zm-7.56-4.65h7.17a3.24,3.24,0,0,0-1-2.12,3.51,3.51,0,0,0-2.64-.9,3.44,3.44,0,0,0-3.57,3Z"/><path d="M760.28,276.42v5.4a7.21,7.21,0,0,0-1.73-.18,4.09,4.09,0,0,0-3,1.19,5,5,0,0,0-1.17,3.67v7.81H748.9V276.42h5.29v2.41a4.14,4.14,0,0,1,2-2,6.51,6.51,0,0,1,2.67-.61A5.24,5.24,0,0,1,760.28,276.42Z"/><path class="cls-1" d="M527.11,241,522,242.41a3.92,3.92,0,0,0-1.19-2.2,4.16,4.16,0,0,0-3.06-1,3.83,3.83,0,0,0-2.52.81,2.43,2.43,0,0,0-1,1.93c0,1.32.84,2.13,2.52,2.44l3.42.65a9.43,9.43,0,0,1,5.45,2.76,7.12,7.12,0,0,1,1.93,4.91,7.57,7.57,0,0,1-2.56,5.64,9.61,9.61,0,0,1-6.88,2.42q-4.82,0-7.47-2.5a9,9,0,0,1-3-5.67l5.22-1.26a4.75,4.75,0,0,0,1.5,3.15,5.31,5.31,0,0,0,3.8,1.24,4.21,4.21,0,0,0,2.62-.73,2.32,2.32,0,0,0,1-1.93,2.14,2.14,0,0,0-.72-1.64,4,4,0,0,0-2-.91l-3.49-.65a9,9,0,0,1-5.1-2.63,7,7,0,0,1-1.85-4.86,7.42,7.42,0,0,1,2.7-5.87,9.51,9.51,0,0,1,6.44-2.34,12.09,12.09,0,0,1,4,.63,7.48,7.48,0,0,1,2.83,1.68,8.87,8.87,0,0,1,1.64,2.16A8,8,0,0,1,527.11,241Z"/><path class="cls-1" d="M535.75,267.06h-5.47V242.33h5.29v1.84a4.68,4.68,0,0,1,2-1.6,7.45,7.45,0,0,1,3.22-.67,7.6,7.6,0,0,1,6.07,2.61,9.91,9.91,0,0,1,2.25,6.71,9.71,9.71,0,0,1-2.39,6.75,7.89,7.89,0,0,1-6.14,2.65q-3.39,0-4.86-1.8Zm6.86-12.51a5.2,5.2,0,0,0,0-6.57,4.19,4.19,0,0,0-5.76,0,5.2,5.2,0,0,0,0,6.57A4.13,4.13,0,0,0,542.61,254.55Z"/><path class="cls-1" d="M563.83,253.78l4.57,1.3a7.39,7.39,0,0,1-2.84,4.08,8.82,8.82,0,0,1-5.4,1.6,9.69,9.69,0,0,1-6.68-16.34,8.62,8.62,0,0,1,6.28-2.63,8.84,8.84,0,0,1,6.57,2.43,9.17,9.17,0,0,1,2.39,6.75,8.05,8.05,0,0,1-.1,1.7H556.16a3.31,3.31,0,0,0,1.26,2.46,4.25,4.25,0,0,0,2.81,1A3.43,3.43,0,0,0,563.83,253.78Zm-7.56-4.64h7.16a3.25,3.25,0,0,0-.95-2.13,3.57,3.57,0,0,0-2.65-.9,3.42,3.42,0,0,0-3.56,3Z"/><path class="cls-1" d="M570.63,255.29a4.75,4.75,0,0,1,1.48-3.65,7,7,0,0,1,3.81-1.75l4.22-.64q1.29-.18,1.29-1.23a1.73,1.73,0,0,0-.7-1.39,3.54,3.54,0,0,0-4.1.22,2.76,2.76,0,0,0-.89,1.86l-4.75-1a6.18,6.18,0,0,1,2.22-4.08,8,8,0,0,1,5.63-1.86q4.06,0,6,2a6.72,6.72,0,0,1,1.93,5v8.74a14.25,14.25,0,0,0,.21,2.77h-5a8.42,8.42,0,0,1-.18-2,5.49,5.49,0,0,1-5,2.52,6.23,6.23,0,0,1-4.51-1.6A5.13,5.13,0,0,1,570.63,255.29Zm7.53,1.48a3.4,3.4,0,0,0,2.34-.83,3.48,3.48,0,0,0,.93-2.73v-.8l-3.38.54c-1.35.22-2,.88-2,2a1.8,1.8,0,0,0,.52,1.3,2.15,2.15,0,0,0,1.59.52Z"/><path class="cls-1" d="M608.83,242.33l-7,7.53L609,260.22h-6.69l-4.22-6.3-1.76,1.91v4.39h-5.47V234.16h5.47v14.18l5.44-6Z"/><path class="cls-1" d="M636.4,260.22H619.7V234.7h5.69v20.09h11Z"/><path class="cls-1" d="M647.53,241.79a9.27,9.27,0,0,1,6.78,2.67,9.61,9.61,0,1,1-13.59,0l0,0A9.33,9.33,0,0,1,647.53,241.79Zm0,13.93a3.93,3.93,0,0,0,2.86-1.15,4.44,4.44,0,0,0,1.17-3.31,4.36,4.36,0,0,0-1.17-3.29,4.13,4.13,0,0,0-5.71,0,5.12,5.12,0,0,0,0,6.57A3.88,3.88,0,0,0,647.53,255.72Z"/><path class="cls-1" d="M658.76,261.23l4.82-1.36A3.67,3.67,0,0,0,664.9,262a3.86,3.86,0,0,0,2.53.83c3,0,4.43-1.52,4.43-4.57v-.83c-.89,1.35-2.48,2-4.79,2a7.9,7.9,0,0,1-5.94-2.49,8.63,8.63,0,0,1-2.37-6.22,8.78,8.78,0,0,1,2.36-6.18,7.73,7.73,0,0,1,6-2.57,6.85,6.85,0,0,1,3.24.68,4.18,4.18,0,0,1,1.73,1.55v-1.91h5.22V258a10,10,0,0,1-2.41,6.9c-1.61,1.81-4,2.72-7.16,2.71a9.71,9.71,0,0,1-6.11-1.88A7,7,0,0,1,658.76,261.23Zm6.55-7.59a4.08,4.08,0,0,0,5.53,0,4,4,0,0,0,1.06-2.88,3.85,3.85,0,0,0-1.12-2.87,3.69,3.69,0,0,0-2.7-1.09,3.73,3.73,0,0,0-2.72,1.09,4.29,4.29,0,0,0-.05,5.75Z"/><path class="cls-1" d="M681.8,239.13a3.2,3.2,0,1,1,4.55,0h0a3.17,3.17,0,0,1-2.29.93A3,3,0,0,1,681.8,239.13Zm5,21.09h-5.47V242.33h5.47Z"/><path class="cls-1" d="M699.29,246.83a4,4,0,0,0-2.93,1.19,4.45,4.45,0,0,0-1.17,3.28,4.37,4.37,0,0,0,1.2,3.24,4.1,4.1,0,0,0,3,1.18,3.64,3.64,0,0,0,3.71-2.66l4.83,1.48a8.25,8.25,0,0,1-2.9,4.39,8.65,8.65,0,0,1-5.64,1.83,9.47,9.47,0,0,1-6.82-2.68,9,9,0,0,1-2.79-6.78,9.24,9.24,0,0,1,8.94-9.51h.49a8.83,8.83,0,0,1,5.73,1.8,8,8,0,0,1,2.88,4.43l-4.9,1.48a3.68,3.68,0,0,0-1.22-1.91A3.55,3.55,0,0,0,699.29,246.83Z"/><path class="cls-2" d="M512.87,321.71a2.68,2.68,0,0,0,3,2.5c2,0,2.8-.79,2.8-2.29s-.78-2.16-3.28-3.07c-3-1.06-4.26-2-4.26-4.06-.14-1.84,1.73-3.41,4.19-3.52h.61c3.72,0,4.7,2,4.75,3.64h-2.25a2.3,2.3,0,0,0-2.58-2.23,2.17,2.17,0,0,0-2.44,1.64.81.81,0,0,0,0,.31c0,1.27.76,1.87,3.07,2.69,3.28,1.16,4.53,2.32,4.53,4.45.22,2-1.72,3.68-4.34,3.85a6.46,6.46,0,0,1-.88,0c-3.84,0-5.08-1.87-5.23-3.91Z"/><path class="cls-2" d="M533.26,320.08c0,3.7-1.7,5.54-4.91,5.54s-4.89-1.77-4.89-5.51,1.94-5.32,5-5.32S533.26,316.57,533.26,320.08Zm-7.5,0c0,2.73.85,4.05,2.67,4.05s2.57-1.34,2.57-4.06-.8-3.87-2.58-3.87-2.67,1.2-2.67,3.92Z"/><path class="cls-2" d="M536.25,325.42V310.8h2.26v14.62Z"/><path class="cls-2" d="M543.23,315c1.1,3.31,2.39,7.23,2.67,8.61h0c.21-1.25,2.13-6.31,2.84-8.61H551l-4,10.46h-2.43L540.84,315Z"/><path class="cls-2" d="M553.31,315h2.25v10.46h-2.25Zm0-4.16h2.25V313h-2.25Z"/><path class="cls-2" d="M559.27,318.2V315h2.17a8.36,8.36,0,0,1,.08,1.32,3.55,3.55,0,0,1,3.27-1.5c2.08,0,3.6.9,3.6,3.19v7.45h-2.27v-7.11a1.79,1.79,0,0,0-2-2.05c-1.76,0-2.52.85-2.52,2.89v6.27h-2.29Z"/><path class="cls-2" d="M581,324.72c0,2.79-.94,4.7-5,4.7-3.68,0-4.47-1.75-4.56-2.91h2.27a2,2,0,0,0,2.19,1.5h.18c2.23,0,2.67-1.22,2.67-3.28v-.86a3.31,3.31,0,0,1-3.21,1.52c-2.84,0-4.22-1.82-4.22-5.07,0-3.72,1.85-5.52,4.53-5.52,1.89,0,2.68.68,2.9,1.31a7.33,7.33,0,0,1,.11-1.14H581v3Zm-7.34-4.44c0,2.46.88,3.64,2.54,3.64,2.06,0,2.67-1.52,2.67-3.91s-.38-3.75-2.44-3.75C574.61,316.26,573.67,317.63,573.67,320.28Z"/><path class="cls-2" d="M590.61,311.47h5c2.62-.12,4.88,1.37,5,3.34a2,2,0,0,1,0,.6c.3,2-1.62,3.78-4.27,4a6.49,6.49,0,0,1-1.08,0h-2.36v6h-2.3Zm2.3,6.56H595c2.17,0,3.25-.85,3.25-2.64.22-1.19-.89-2.29-2.48-2.46h-2.89Z"/><path class="cls-2" d="M603.16,318.52V315h2.16v1.84a3.82,3.82,0,0,1,3.69-2v1.87c-2.38,0-3.63,1-3.63,3v5.77h-2.26Z"/><path class="cls-2" d="M620.38,320.08c0,3.7-1.7,5.54-4.91,5.54s-4.89-1.77-4.89-5.51,1.94-5.32,5-5.32S620.38,316.57,620.38,320.08Zm-7.5,0c0,2.73.87,4.05,2.67,4.05s2.58-1.34,2.58-4.06-.81-3.87-2.59-3.87-2.68,1.2-2.68,3.92Z"/><path class="cls-2" d="M623.44,310.8h2.26v5.48a3.52,3.52,0,0,1,3.27-1.49c2.68,0,4.09,1.71,4.09,5.14,0,3.24-1.13,5.67-4.48,5.67a3.08,3.08,0,0,1-3-1.37,7.88,7.88,0,0,1,0,1.19h-2.18V310.8Zm7.34,9.16c0-2.51-.74-3.7-2.45-3.7-2,0-2.67,1.32-2.67,4s.52,3.91,2.52,3.91,2.54-1.35,2.54-4.17Z"/><path class="cls-2" d="M636,325.42V310.8h2.26v14.62Z"/><path class="cls-2" d="M643.49,320.54c0,1.91.43,3.64,2.55,3.64a2.23,2.23,0,0,0,2.42-1.78h2.2c-.11,1.84-2.18,3.28-4.64,3.22-4.2,0-4.79-2.83-4.79-5.44,0-3.32,1.55-5.39,4.89-5.39,3.76,0,4.64,2.26,4.64,4.9v.85Zm5-1.29c0-1.65-.44-3-2.42-3-2.42,0-2.55,2.31-2.58,3Z"/><path class="cls-2" d="M653.76,318.1V315h2.16c0,.43.08.85.08,1.28a3.46,3.46,0,0,1,3.12-1.45,2.7,2.7,0,0,1,2.88,1.53,3.82,3.82,0,0,1,3.4-1.53c1.79,0,3.42.65,3.42,3v7.58h-2.23v-7.3a1.65,1.65,0,0,0-1.89-1.86,2.23,2.23,0,0,0-2.25,2.48v6.68H660.2v-7.26c0-1.23-.55-1.89-1.84-1.89-1.61,0-2.33,1-2.33,2.6v6.55h-2.25Z"/><rect class="cls-2" x="510.81" y="304.7" width="250.05" height="0.35"/><path class="cls-1" d="M425.73,298.45C419.58,296,414,293.36,411.88,287a17.21,17.21,0,0,1-.5-8.49c2.93-14.17,6.18-28.27,9.41-42.37a2.61,2.61,0,0,1,1.91-1.57c9.92-.07,19.84-.25,29.75.08,12.1.4,20.64,9.86,20.65,22.32s-8.82,22-20.92,22.43c-6.6.23-13.22.12-19.83.05-1.56,0-2.21.43-2.56,2C428.55,287,427.14,292.59,425.73,298.45Z"/><path d="M424.17,307.41c-1.36,6.07-2.66,11.89-4,17.85-11.21-.12-20.62-3.95-28.08-12-8.81-9.5-12.22-20.78-9.59-33.55,3-14.43,6.27-28.78,9.43-43.17.13-.57.34-1.12.57-1.87h19.21c-1.15,5.23-2.28,10.32-3.38,15.42-2.17,10-4.81,19.94-6.38,30C399.88,293.5,408.64,304.73,422,307,422.6,307.07,423.17,307.21,424.17,307.41Z"/><path d="M387,235.17q-1.2,3.14-3.19,9.07a136.1,136.1,0,0,0-3.9,15.43h-2.4a34,34,0,0,0,.54-3.48q.18-1.8.18-3.12a16.34,16.34,0,0,0-2-8.35,13.79,13.79,0,0,0-5.82-5.4,20.36,20.36,0,0,0-9.37-2,16.45,16.45,0,0,0-9.73,2.88q-4.08,2.88-4.08,9.49a17.71,17.71,0,0,0,2,8.1,40.55,40.55,0,0,0,5.16,7.69q3.18,3.78,6.67,7.62t6.6,7.81a40,40,0,0,1,5.11,8.34,22.3,22.3,0,0,1,2,9.31,18.54,18.54,0,0,1-3.3,11.17,25.85,25.85,0,0,1-8.53,7.44,42.19,42.19,0,0,1-11.11,4.2,51,51,0,0,1-11,1.32A59.88,59.88,0,0,1,331,322a27.09,27.09,0,0,1-6.55-1.92q-2.76-1.26-5.76-2.94a14.38,14.38,0,0,0-2.28-1.32,4.68,4.68,0,0,0-1.8-.48,2.93,2.93,0,0,0-2.52,1.38,36.26,36.26,0,0,0-2.65,5.1H307c.72-1.76,1.49-3.8,2.28-6.12s1.69-5.3,2.65-9,2-8.22,3.24-13.75h2.4a44.24,44.24,0,0,0-.84,4.57,27,27,0,0,0-.24,4.92q.36,8.64,5.46,13.09T336.06,320q8.29,0,11.53-3.3a11.76,11.76,0,0,0,3.24-8.59,24.8,24.8,0,0,0-1.74-9.36,34.64,34.64,0,0,0-4.62-8.11q-2.88-3.78-6-7.44t-6-7.45a37.08,37.08,0,0,1-4.68-8,23.79,23.79,0,0,1-1.8-9.31,19.91,19.91,0,0,1,2.82-10.75,24.21,24.21,0,0,1,7.44-7.5,34.63,34.63,0,0,1,10-4.44,39.66,39.66,0,0,1,10.39-1.45q7.8,0,12.55,1.93a67.06,67.06,0,0,1,7.5,3.48q1.08.6,2.22,1.2a4.16,4.16,0,0,0,1.74.6q1.68,0,4-6.37Z"/><path d="M467.43,282.28c-.4,1-.94,2.56-1.6,4.55a66.76,66.76,0,0,0-2,7.75h-1.21a14.82,14.82,0,0,0,.28-1.75c.06-.6.09-1.12.09-1.57a8.26,8.26,0,0,0-1-4.19,6.94,6.94,0,0,0-2.92-2.71,10.1,10.1,0,0,0-4.71-1,8.16,8.16,0,0,0-4.88,1.45q-2.06,1.44-2.06,4.76a9,9,0,0,0,1,4.08,21.35,21.35,0,0,0,2.59,3.86c1.07,1.26,2.18,2.54,3.35,3.83s2.27,2.59,3.32,3.92a20.19,20.19,0,0,1,2.56,4.19,11.4,11.4,0,0,1,1,4.67,9.34,9.34,0,0,1-1.66,5.61,12.82,12.82,0,0,1-4.28,3.74,20.71,20.71,0,0,1-5.58,2.11,25.3,25.3,0,0,1-5.55.67,28.93,28.93,0,0,1-4.92-.33,14,14,0,0,1-3.29-1c-.92-.42-1.89-.91-2.89-1.48a6.58,6.58,0,0,0-1.15-.66,2.36,2.36,0,0,0-.9-.24,1.45,1.45,0,0,0-1.27.69,18.94,18.94,0,0,0-1.33,2.57h-1.2c.36-.89.74-1.91,1.14-3.08s.85-2.66,1.33-4.49,1-4.14,1.63-6.91h1.21a19.66,19.66,0,0,0-.43,2.29,12.75,12.75,0,0,0-.12,2.47,8.75,8.75,0,0,0,2.75,6.58,10.42,10.42,0,0,0,7.08,2.23q4.17,0,5.79-1.66a5.84,5.84,0,0,0,1.63-4.31,12.65,12.65,0,0,0-.87-4.71,17.84,17.84,0,0,0-2.32-4.07q-1.5-1.89-3-3.74c-1-1.23-2.05-2.47-3-3.74a18.71,18.71,0,0,1-2.36-4,11.88,11.88,0,0,1-.9-4.67,10,10,0,0,1,1.42-5.4,12.09,12.09,0,0,1,3.73-3.77,17.4,17.4,0,0,1,5-2.23,20.05,20.05,0,0,1,5.22-.73,17.33,17.33,0,0,1,6.3,1,33,33,0,0,1,3.77,1.75l1.12.6a2.05,2.05,0,0,0,.87.3c.57,0,1.23-1.06,2-3.19Z"/><path class="cls-3" d="M426.1,272.62l-2.6-3.78-.15.09-6.54,4.51a2.34,2.34,0,0,0-1,2.8,2.29,2.29,0,0,0,2.93,1.38h0a1.39,1.39,0,0,0,.28-.12l.24-.13Z"/><path class="cls-3" d="M416.72,279.16a10.67,10.67,0,0,1-1.48-1,3.61,3.61,0,0,1-1.15-2.67v-.22l.19-1.06a5.71,5.71,0,0,1,2.36-2.55c3.4-2.31,6.78-4.66,10.17-7l.29-.19a.77.77,0,0,1,1.09.08h0a.83.83,0,0,1,.08.12,3.45,3.45,0,0,1,.28.54l2.13-1.45a13.87,13.87,0,1,1,2.71,4l-2,1.4.13.2c.58.87.54,1.13-.32,1.72-3.37,2.33-6.76,4.64-10.12,7a5.65,5.65,0,0,1-3.23,1.29Zm24.68-9a12.34,12.34,0,1,0-10.3-14.09v.09a12.31,12.31,0,0,0,10.31,14Zm-17.9-1.34-.15.09-6.54,4.51a2.34,2.34,0,0,0-1,2.8,2.29,2.29,0,0,0,2.93,1.38h0a1.39,1.39,0,0,0,.28-.12l.24-.13,6.85-4.74Zm1.4-.92,2.57,3.73L429.9,270l-2.6-3.72Zm7.31-1.4-.8-1.2-1.83,1.27.81,1.19Z"/><path class="cls-3" d="M445.25,245.81a12.08,12.08,0,1,1-.17,0ZM453.92,260a10.81,10.81,0,1,0-12.59,8.67h0A10.82,10.82,0,0,0,453.92,260Z"/><path class="cls-3" d="M445.07,250.47l-.4-.07a.77.77,0,0,0-.3,1.51,11.84,11.84,0,0,1,2,.78,5.91,5.91,0,0,1,2.91,4,.57.57,0,0,0,.07.34.78.78,0,0,0,.88.67h0a.79.79,0,0,0,.67-.88v-.12a7.78,7.78,0,0,0-5.84-6.26Z"/><path class="cls-3" d="M450.05,259.3a.78.78,0,0,0-.89.6.82.82,0,0,0,.63.92.79.79,0,0,0,.89-.66A.76.76,0,0,0,450.05,259.3Z"/><rect class="cls-4" x="490.84" y="233.66" width="1.21" height="95.76"/><path class="cls-2" d="M678,311.11h2.1V324h6.81l-.3,1.37H678Z"/><path class="cls-2" d="M697.83,319.92c0,3.75-1.68,5.65-4.89,5.65s-4.89-1.83-4.89-5.61,1.92-5.41,5-5.41S697.83,316.35,697.83,319.92Zm-7.69,0c0,2.9,1,4.27,2.81,4.27s2.78-1.39,2.78-4.28c0-2.72-.89-4.06-2.78-4.06s-2.81,1.23-2.81,4.15Z"/><path class="cls-2" d="M709.47,324.69c0,2.8-.89,4.76-5,4.76-3.68,0-4.47-1.78-4.55-2.93H702a2.1,2.1,0,0,0,2.36,1.63h.18c2.38,0,2.87-1.3,2.87-3.45v-1a3.38,3.38,0,0,1-3.31,1.62c-2.88,0-4.29-1.82-4.29-5.17,0-3.83,1.89-5.62,4.59-5.62,1.93,0,2.76.7,3,1.39a6.22,6.22,0,0,1,.11-1.22h2v3.08ZM702,320.14c0,2.59.95,3.85,2.67,3.85,2.21,0,2.81-1.63,2.81-4.11s-.45-4-2.67-4C703,315.91,702,317.38,702,320.14Z"/><path class="cls-2" d="M712.88,314.72h2.06v10.65h-2.06Zm0-4.3h2v2.2h-2Z"/><path class="cls-2" d="M726.88,322.12c.08,1.84-1.85,3.38-4.3,3.44h-.23c-3.72,0-4.72-2.46-4.72-5.55s1.34-5.47,4.9-5.47c2.34-.05,4.28,1.32,4.36,3.06,0,.1,0,.2,0,.3h-2.1a2,2,0,0,0-2.25-2c-2,0-2.84,1.64-2.84,4.1,0,2.65.77,4.23,2.67,4.23a2.35,2.35,0,0,0,2.41-2.11Z"/><path class="cls-2" d="M737.63,323.49c0,.67.06,1.55.1,1.88h-1.87a4.5,4.5,0,0,1-.14-1.21,3.64,3.64,0,0,1-3.37,1.4c-2.68,0-3.72-1.6-3.72-3.08,0-2,1.76-3.41,5.49-3.41.5,0,1,0,1.49,0v-1.42c0-.83-.22-1.88-2.14-1.88s-2.22,1.11-2.3,1.83h-2c-.14-1.61,1.49-3,3.64-3.1a4.33,4.33,0,0,1,.72,0c2.76,0,4.09,1,4.09,3Zm-1.9-3.16a11.16,11.16,0,0,0-1.42-.06c-2.53,0-3.55.91-3.55,2.09-.17.91.69,1.75,1.91,1.88H733c2.09,0,2.77-1.1,2.77-3.34Z"/><path class="cls-2" d="M741.08,325.37V310.42h2v14.95Z"/><path class="cls-2" d="M746.54,325.37V310.42h2.05v14.95Z"/><path class="cls-2" d="M752.92,314.72c1.54,4.46,2.67,7.65,2.9,8.79h0c.29-1.22,1.56-4.87,2.91-8.79h2.13l-4.16,11.19c-1.15,3.12-2.26,3.53-4.28,3.53a6.77,6.77,0,0,1-1-.07V328c.31,0,.62.05.93.05,1.5,0,1.92-.76,2.48-2.47l-4.17-10.87Z"/></svg>