<svg id="Layer_1" data-name="Layer 1" xmlns="http://www.w3.org/2000/svg" viewBox="0 0 957.9 568.7"><defs><style>.cls-1{fill:#383838;}.cls-2{fill:#00a14b;}.cls-3{fill:#fff;}.cls-4{fill:#666766;}</style></defs><title>new 2</title><path class="cls-1" d="M523.4,281.2l-9.5,2.7a7.2,7.2,0,0,0-2.2-4.1c-1.2-1.2-3.1-1.9-5.7-1.9a7.34,7.34,0,0,0-4.7,1.5,4.55,4.55,0,0,0-1.8,3.6c0,2.4,1.6,4,4.7,4.5l6.3,1.2a17.42,17.42,0,0,1,10.1,5.1,13.39,13.39,0,0,1,3.6,9.1,13.74,13.74,0,0,1-4.7,10.4c-3.2,3-7.4,4.5-12.7,4.5-6,0-10.5-1.5-13.8-4.6a16.41,16.41,0,0,1-5.5-10.5l9.7-2.3a8.66,8.66,0,0,0,2.8,5.8,10,10,0,0,0,7,2.3,8,8,0,0,0,4.9-1.4,4.55,4.55,0,0,0,1.8-3.6,4,4,0,0,0-1.3-3,7.81,7.81,0,0,0-3.7-1.7l-6.5-1.2a16.24,16.24,0,0,1-9.4-4.9,12.52,12.52,0,0,1-3.4-9,13.9,13.9,0,0,1,5-10.9,17.47,17.47,0,0,1,11.9-4.3,24,24,0,0,1,7.5,1.2,13.13,13.13,0,0,1,5.2,3.1,16.76,16.76,0,0,1,3,4A22.53,22.53,0,0,1,523.4,281.2Z"/><path class="cls-1" d="M544,282.7a17.42,17.42,0,0,1,12.6,4.9,17.78,17.78,0,1,1-25.1,0A17.44,17.44,0,0,1,544,282.7Zm0,25.8a7.4,7.4,0,0,0,5.3-2.1,8.41,8.41,0,0,0,2.2-6.1,8,8,0,0,0-2.2-6.1,7.74,7.74,0,0,0-10.6,0,7.78,7.78,0,0,0-2.2,6,8.52,8.52,0,0,0,2.2,6.1A7.49,7.49,0,0,0,544,308.5Z"/><path class="cls-1" d="M576.3,316.8H566.2V268.5h10.1Z"/><path class="cls-1" d="M615.9,283.7l-12.6,33.1H593.1l-13.6-33.1h11l7.7,20.6,7.1-20.6Z"/><path class="cls-1" d="M639.8,304.9l8.5,2.4a13.64,13.64,0,0,1-5.3,7.6,16.17,16.17,0,0,1-10,3,16.66,16.66,0,0,1-12.2-4.8c-3.4-3.2-5-7.5-5-12.9,0-5.2,1.6-9.4,4.9-12.6a16,16,0,0,1,11.6-4.9c5.2,0,9.2,1.5,12.2,4.5s4.4,7.2,4.4,12.5a10.8,10.8,0,0,1-.2,3.1H625.6a6.25,6.25,0,0,0,2.3,4.6,7.68,7.68,0,0,0,5.2,1.8C636.5,309.2,638.7,307.8,639.8,304.9Zm-14-8.6H639a5.71,5.71,0,0,0-1.8-3.9,6.61,6.61,0,0,0-4.9-1.7,6.38,6.38,0,0,0-4.7,1.7,6.18,6.18,0,0,0-1.8,3.9Z"/><path class="cls-1" d="M674.5,283.7v10a16.55,16.55,0,0,0-3.2-.3,7.38,7.38,0,0,0-5.6,2.2c-1.4,1.5-2.2,3.7-2.2,6.8v14.5H653.4V283.8h9.8v4.5a7.41,7.41,0,0,1,3.7-3.7,11.7,11.7,0,0,1,4.9-1.1A8.22,8.22,0,0,1,674.5,283.7Z"/><path class="cls-2" d="M477.8,295.4c-10.1-4-19.3-8.4-22.8-18.9a28.84,28.84,0,0,1-.8-14c4.8-23.3,10.1-46.4,15.5-69.6a4.31,4.31,0,0,1,3.1-2.6c16.3-.1,32.6-.4,48.9.1,19.9.7,33.9,16.2,33.9,36.7s-14.5,36.2-34.4,36.8c-10.9.4-21.7.2-32.6.1-2.6,0-3.6.7-4.2,3.3C482.5,276.6,480.2,285.8,477.8,295.4Z"/><path class="cls-2" d="M475.3,310.1c-2.2,10-4.4,19.5-6.5,29.3-18.4-.2-33.9-6.5-46.1-19.7-14.5-15.6-20.1-34.1-15.8-55.1,4.9-23.7,10.3-47.3,15.5-70.9.2-.9.6-1.9.9-3.1h31.6c-1.9,8.6-3.7,17-5.6,25.3-3.6,16.4-7.9,32.8-10.5,49.3-3.4,22,11,40.4,33,44.1A23.5,23.5,0,0,0,475.3,310.1Z"/><path class="cls-2" d="M414.2,191.4c-1.3,3.4-3.1,8.4-5.2,14.9a219.47,219.47,0,0,0-6.4,25.4h-3.9a56.22,56.22,0,0,0,.9-5.7q.3-3,.3-5.1a27.22,27.22,0,0,0-3.3-13.7,23.54,23.54,0,0,0-9.6-8.9c-4.2-2.2-9.3-3.2-15.4-3.2a26.82,26.82,0,0,0-16,4.7c-4.5,3.2-6.7,8.4-6.7,15.6a28.17,28.17,0,0,0,3.3,13.3,63.32,63.32,0,0,0,8.5,12.6c3.5,4.1,7.1,8.3,11,12.5s7.4,8.5,10.9,12.8a66.28,66.28,0,0,1,8.4,13.7,36.62,36.62,0,0,1,3.3,15.3c0,7.2-1.8,13.3-5.4,18.4a42.08,42.08,0,0,1-14,12.2,66.38,66.38,0,0,1-18.3,6.9,85.32,85.32,0,0,1-18.1,2.2,96.12,96.12,0,0,1-16.1-1.1,44,44,0,0,1-10.7-3.2c-3-1.4-6.2-3-9.5-4.8a27.74,27.74,0,0,0-3.7-2.2,7.87,7.87,0,0,0-3-.8,4.54,4.54,0,0,0-4.1,2.3,55.46,55.46,0,0,0-4.3,8.4h-3.9c1.2-2.9,2.4-6.2,3.8-10.1s2.8-8.7,4.3-14.7,3.3-13.5,5.3-22.6h4a65.85,65.85,0,0,0-1.4,7.5,44,44,0,0,0-.4,8.1c.4,9.5,3.4,16.6,9,21.5s13.3,7.3,23.2,7.3q13.65,0,18.9-5.4c3.5-3.6,5.3-8.3,5.3-14.1a40.43,40.43,0,0,0-2.8-15.4,56.56,56.56,0,0,0-7.6-13.3c-3.2-4.1-6.5-8.2-9.9-12.2s-6.7-8.1-9.9-12.2a62.39,62.39,0,0,1-7.7-13.2,39.74,39.74,0,0,1-3-15.3,32.88,32.88,0,0,1,4.6-17.7,38.73,38.73,0,0,1,12.2-12.3,57.54,57.54,0,0,1,16.4-7.3,70.54,70.54,0,0,1,17.1-2.4c8.5,0,15.4,1,20.6,3.1q6.3,2.55,12.3,5.7c1.2.7,2.4,1.3,3.6,2a7.16,7.16,0,0,0,2.9,1c1.8,0,4-3.5,6.5-10.4Z"/><path class="cls-3" d="M490.6,202.5h6.2a8.24,8.24,0,0,1,8.2,8.2h0v6.2a8.24,8.24,0,0,1-8.2,8.2h-6.2a8.24,8.24,0,0,1-8.2-8.2h0v-6.2a8.17,8.17,0,0,1,8.2-8.2Z"/><path class="cls-3" d="M490.6,229.2h6.2a8.24,8.24,0,0,1,8.2,8.2h0v6.2a8.24,8.24,0,0,1-8.2,8.2h-6.2a8.24,8.24,0,0,1-8.2-8.2h0v-6.2a8.24,8.24,0,0,1,8.2-8.2Z"/><path class="cls-3" d="M517.3,229.2h6.2a8.24,8.24,0,0,1,8.2,8.2h0v6.2a8.24,8.24,0,0,1-8.2,8.2h-6.2a8.24,8.24,0,0,1-8.2-8.2h0v-6.2a8.24,8.24,0,0,1,8.2-8.2Z"/><path class="cls-3" d="M511.1,216.9h6.2V223a2.05,2.05,0,0,0,4.1.1h0v-6.2h6.2a2.1,2.1,0,0,0,1.9-2.2,2.13,2.13,0,0,0-1.9-1.9h-6.2v-6.2a2,2,0,0,0-4,0v6.2h-6.2a2.06,2.06,0,1,0-.3,4.1c0-.1.1-.1.2,0Z"/><path class="cls-4" d="M491.3,336.4c.1,1.4.8,2.5,2.2,2.5s2.1-.8,2.1-2.3-.6-2.2-2.5-3.1c-2.2-1.1-3.2-2-3.2-4.1a3.34,3.34,0,0,1,3.1-3.5h.5c2.8,0,3.5,2,3.5,3.6h-1.7c-.1-.7-.3-2.2-1.9-2.2a1.63,1.63,0,0,0-1.8,1.6v.3c0,1.3.6,1.9,2.3,2.7,2.5,1.2,3.4,2.3,3.4,4.5a3.59,3.59,0,0,1-3.3,3.9h-.7c-2.9,0-3.8-1.9-3.9-3.9Z"/><path class="cls-4" d="M506.6,334.8c0,3.7-1.3,5.5-3.7,5.5s-3.7-1.8-3.7-5.5,1.5-5.3,3.7-5.3S506.6,331.3,506.6,334.8Zm-5.6,0c0,2.7.6,4,2,4s1.9-1.3,1.9-4.1-.6-3.9-1.9-3.9-2,1.3-2,4Z"/><path class="cls-4" d="M508.8,340.1V325.5h1.7v14.6Z"/><path class="cls-4" d="M514,329.7c.8,3.3,1.8,7.2,2,8.6h0c.2-1.3,1.6-6.3,2.1-8.6h1.7l-3,10.5H515l-2.8-10.5Z"/><path class="cls-4" d="M521.6,329.7h1.7v10.5h-1.7Zm0-4.1h1.7v2.2h-1.7Z"/><path class="cls-4" d="M526,332.9v-3.2h1.6c0,.4.1.9.1,1.3a2.42,2.42,0,0,1,2.5-1.5c1.5,0,2.7.9,2.7,3.2v7.5h-1.7v-7.1c0-1.2-.4-2-1.5-2-1.3,0-1.9.9-1.9,2.9v6.3H526Z"/><path class="cls-4" d="M542.3,339.4c0,2.8-.7,4.7-3.7,4.7-2.8,0-3.3-1.8-3.4-2.9h1.7a1.56,1.56,0,0,0,1.6,1.5h.1c1.7,0,2-1.2,2-3.3v-.9a2.29,2.29,0,0,1-2.4,1.5c-2.1,0-3.2-1.8-3.2-5.1,0-3.7,1.4-5.5,3.4-5.5a2.07,2.07,0,0,1,2.2,1.3,3.75,3.75,0,0,1,.1-1.1h1.6v9.8Zm-5.5-4.4c0,2.5.7,3.6,1.9,3.6,1.5,0,2-1.5,2-3.9s-.3-3.8-1.8-3.8S536.8,332.4,536.8,335Z"/><path class="cls-4" d="M549.5,326.2h3.7a3.58,3.58,0,0,1,3.8,3.3v.6a3.61,3.61,0,0,1-3.2,4h-2.6v6h-1.7Zm1.7,6.6h1.6c1.6,0,2.4-.9,2.4-2.6a2.23,2.23,0,0,0-1.9-2.5h-2.2v5.1Z"/><path class="cls-4" d="M558.9,333.2v-3.5h1.6v1.8a2.91,2.91,0,0,1,2.8-2v1.9q-2.7,0-2.7,3v5.8h-1.7Z"/><path class="cls-4" d="M571.7,334.8c0,3.7-1.3,5.5-3.7,5.5s-3.7-1.8-3.7-5.5,1.5-5.3,3.7-5.3S571.7,331.3,571.7,334.8Zm-5.6,0c0,2.7.7,4,2,4s1.9-1.3,1.9-4.1-.6-3.9-1.9-3.9-2,1.3-2,4Z"/><path class="cls-4" d="M574,325.5h1.7V331a2.42,2.42,0,0,1,2.5-1.5c2,0,3.1,1.7,3.1,5.1,0,3.2-.8,5.7-3.3,5.7a2.09,2.09,0,0,1-2.2-1.4v1.2H574V325.5Zm5.5,9.2c0-2.5-.5-3.7-1.8-3.7-1.5,0-2,1.3-2,4s.4,3.9,1.9,3.9,1.9-1.4,1.9-4.2Z"/><path class="cls-4" d="M583.4,340.1V325.5h1.7v14.6Z"/><path class="cls-4" d="M589,335.3c0,1.9.3,3.6,1.9,3.6a1.79,1.79,0,0,0,1.8-1.8h1.6a3.36,3.36,0,0,1-3.5,3.2c-3.1,0-3.6-2.8-3.6-5.4,0-3.3,1.2-5.4,3.7-5.4,2.8,0,3.5,2.3,3.5,4.9v.9Zm3.8-1.3c0-1.6-.3-3-1.8-3-1.8,0-1.9,2.3-1.9,3Z"/><path class="cls-4" d="M596.7,332.8v-3.1h1.6c0,.4.1.9.1,1.3a2.53,2.53,0,0,1,2.3-1.5,2.06,2.06,0,0,1,2.2,1.5,2.58,2.58,0,0,1,2.5-1.5c1.3,0,2.6.6,2.6,3v7.6h-1.7v-7.3c0-1-.3-1.9-1.4-1.9s-1.7,1.1-1.7,2.5v6.7h-1.7v-7.3c0-1.2-.4-1.9-1.4-1.9-1.2,0-1.7,1-1.7,2.6V340h-1.7Z"/><path class="cls-4" d="M614.8,325.8h1.6v12.9h5.1l-.2,1.4h-6.4Z"/><path class="cls-4" d="M629.7,334.6c0,3.8-1.3,5.6-3.7,5.6s-3.7-1.8-3.7-5.6,1.4-5.4,3.7-5.4S629.7,331.1,629.7,334.6Zm-5.8,0c0,2.9.7,4.3,2.1,4.3s2.1-1.4,2.1-4.3c0-2.7-.7-4.1-2.1-4.1s-2.1,1.3-2.1,4.1Z"/><path class="cls-4" d="M638.4,339.4c0,2.8-.7,4.8-3.7,4.8-2.8,0-3.3-1.8-3.4-2.9h1.6a1.63,1.63,0,0,0,1.8,1.6h.1c1.8,0,2.2-1.3,2.2-3.5v-1a2.5,2.5,0,0,1-2.5,1.6c-2.2,0-3.2-1.8-3.2-5.2,0-3.8,1.4-5.6,3.4-5.6a2.15,2.15,0,0,1,2.3,1.4,4.87,4.87,0,0,1,.1-1.2h1.5v3.1Zm-5.6-4.5c0,2.6.7,3.9,2,3.9,1.7,0,2.1-1.6,2.1-4.1s-.3-4-2-4C633.5,330.6,632.8,332.1,632.8,334.9Z"/><path class="cls-4" d="M640.9,329.4h1.5V340h-1.5Zm0-4.3h1.5v2.2h-1.5Z"/><path class="cls-4" d="M651.4,336.8a3.27,3.27,0,0,1-3.2,3.4H648c-2.8,0-3.5-2.5-3.5-5.5s1-5.5,3.7-5.5a3.22,3.22,0,0,1,3.3,3.1v.3h-1.6c0-.4-.2-2-1.7-2s-2.1,1.6-2.1,4.1.6,4.2,2,4.2,1.7-1.5,1.8-2.1Z"/><path class="cls-4" d="M659.5,338.2a10.32,10.32,0,0,0,.1,1.9h-1.4a4.87,4.87,0,0,1-.1-1.2,2.5,2.5,0,0,1-2.5,1.4,2.8,2.8,0,0,1-2.8-3.1c0-2,1.3-3.4,4.1-3.4H658v-1.4c0-.8-.2-1.9-1.6-1.9a1.63,1.63,0,0,0-1.7,1.8h-1.5a2.91,2.91,0,0,1,2.7-3.1h.5c2.1,0,3.1,1,3.1,3v6Zm-1.5-3.1c-.4,0-.7-.1-1.1-.1-1.9,0-2.7.9-2.7,2.1a1.69,1.69,0,0,0,1.4,1.9h.2c1.6,0,2.1-1.1,2.1-3.3Z"/><path class="cls-4" d="M662,340.1V325.2h1.5v15Z"/><path class="cls-4" d="M666.1,340.1V325.2h1.5v15Z"/><path class="cls-4" d="M670.9,329.4c1.2,4.5,2,7.6,2.2,8.8h0c.2-1.2,1.2-4.9,2.2-8.8h1.6l-3.1,11.2c-.9,3.1-1.7,3.5-3.2,3.5a2.2,2.2,0,0,1-.8-.1v-1.4c.2,0,.5.1.7,0,1.1,0,1.4-.8,1.8-2.5l-3.1-10.9Z"/><rect class="cls-4" x="483" y="321.2" width="201.4" height="0.4"/></svg>